<?xml version="1.0" encoding="UTF-8"?><svg id="Ebene_2" xmlns="http://www.w3.org/2000/svg" viewBox="0 0 32 32"><defs><style>.cls-1{fill:#0d98d2;}.cls-1,.cls-2{stroke-width:0px;}.cls-2{fill:#fff;}</style></defs><g id="Ebene_1-2"><rect class="cls-1" width="32" height="32" rx="4" ry="4"/><path class="cls-2" d="m5.84,15.96c0-6.83,5.1-10.98,10.72-10.98,6.05,0,9.6,3.93,9.6,9.86,0,.82-.09,1.6-.17,2.16H8.22v-2.77h15.65l-.91.99c0-4.97-2.46-7.44-6.31-7.44s-7.26,2.94-7.26,8.17,3.54,8.21,8.21,8.21c2.51,0,4.5-.78,6.4-1.99l1.3,2.33c-2.07,1.38-4.75,2.51-8.13,2.51-6.31,0-11.33-4.06-11.33-11.07Z"/></g></svg>