<?xml version="1.0" encoding="UTF-8"?><svg id="Ebene_2" xmlns="http://www.w3.org/2000/svg" viewBox="0 0 186.49 39.25"><defs><style>.cls-1{fill:#5fff81;}.cls-1,.cls-2{stroke-width:0px;}.cls-2{fill:#fff;}</style></defs><g id="Ebene_1-2"><path class="cls-2" d="m0,21.1c0-6.83,5.1-10.98,10.72-10.98,6.05,0,9.6,3.93,9.6,9.86,0,.82-.09,1.6-.17,2.16H2.38v-2.77h15.65l-.91.99c0-4.97-2.46-7.44-6.31-7.44s-7.26,2.94-7.26,8.17,3.54,8.21,8.21,8.21c2.51,0,4.5-.78,6.4-1.99l1.3,2.33c-2.07,1.38-4.75,2.51-8.13,2.51-6.31,0-11.33-4.06-11.33-11.07Z"/><path class="cls-2" d="m23.86,10.63h3.67l4.84,11.89c.82,2.12,1.6,4.19,2.33,6.22h.17c.74-2.03,1.43-4.11,2.29-6.22l4.84-11.89h3.46l-8.73,21.01h-4.02l-8.86-21.01Z"/><path class="cls-2" d="m49.8,26.2c0-4.71,4.41-7,15.26-7.87-.13-2.85-1.51-5.27-5.58-5.27-2.72,0-5.4,1.3-7.35,2.51l-1.43-2.42c2.16-1.38,5.71-3.03,9.38-3.03,5.75,0,8.56,3.42,8.56,8.65v12.88h-2.98l-.3-2.85h-.13c-2.29,1.82-5.32,3.37-8.26,3.37-3.93,0-7.18-2.2-7.18-5.97Zm15.26-.04v-5.45c-8.99.69-11.71,2.46-11.71,5.23,0,2.38,2.16,3.33,4.58,3.33s4.71-1.12,7.13-3.11Z"/><path class="cls-2" d="m81.62,24.6V3.76h-7.44V.86h11.02v23.99c0,3.03,1.64,4.32,4.15,4.32,1.21,0,2.51-.3,3.93-.95l.91,2.68c-1.95.82-3.33,1.25-5.62,1.25-4.5,0-6.96-2.59-6.96-7.56Z"/><path class="cls-1" d="m104.61,19.63c0-8.34,3.67-14.96,9.68-19.63l1.99,1.82c-5.79,4.88-8.47,10.55-8.47,17.81s2.68,12.93,8.47,17.81l-1.99,1.82c-6.01-4.67-9.68-11.28-9.68-19.63Z"/><path class="cls-1" d="m133.88,13.53h-9.73v-2.9h13.31v21.01h-3.59V13.53Zm-1.43-10.07c0-1.64,1.21-2.77,2.85-2.77s2.85,1.12,2.85,2.77-1.21,2.77-2.85,2.77-2.85-1.08-2.85-2.77Z"/><path class="cls-1" d="m148.36,26.2c0-4.71,4.41-7,15.26-7.87-.13-2.85-1.51-5.27-5.58-5.27-2.72,0-5.4,1.3-7.35,2.51l-1.43-2.42c2.16-1.38,5.71-3.03,9.38-3.03,5.75,0,8.56,3.42,8.56,8.65v12.88h-2.98l-.3-2.85h-.13c-2.29,1.82-5.32,3.37-8.26,3.37-3.93,0-7.18-2.2-7.18-5.97Zm15.26-.04v-5.45c-8.99.69-11.71,2.46-11.71,5.23,0,2.38,2.16,3.33,4.58,3.33s4.71-1.12,7.13-3.11Z"/><path class="cls-1" d="m174.82,37.44c5.79-4.88,8.47-10.55,8.47-17.81s-2.68-12.93-8.47-17.81l1.99-1.82c6.01,4.67,9.68,11.28,9.68,19.63s-3.67,14.96-9.68,19.63l-1.99-1.82Z"/></g></svg>